<svg width="24" height="24" viewBox="0 0 24 24" fill="none" xmlns="http://www.w3.org/2000/svg">
<path fill-rule="evenodd" clip-rule="evenodd" d="M12.0004 1.99896C9.28436 1.99896 8.9435 2.01084 7.87677 2.05938C6.81212 2.10814 6.08541 2.27669 5.44953 2.524C4.79178 2.77943 4.23383 3.12112 3.67797 3.67719C3.12168 4.23306 2.77999 4.79101 2.52373 5.44855C2.27579 6.08463 2.10703 6.81155 2.05911 7.87579C2.0114 8.94252 1.9989 9.28359 1.9989 11.9996C1.9989 14.7156 2.01099 15.0554 2.05932 16.1221C2.10828 17.1868 2.27684 17.9135 2.52393 18.5494C2.77958 19.2071 3.12126 19.7651 3.67734 20.3209C4.233 20.8772 4.79095 21.2197 5.44828 21.4752C6.08457 21.7225 6.81149 21.891 7.87594 21.9398C8.94267 21.9883 9.28332 22.0002 11.9991 22.0002C14.7153 22.0002 15.0551 21.9883 16.1219 21.9398C17.1865 21.891 17.9141 21.7225 18.5504 21.4752C19.2079 21.2197 19.765 20.8772 20.3207 20.3209C20.877 19.7651 21.2186 19.2071 21.4749 18.5496C21.7208 17.9135 21.8895 17.1866 21.9395 16.1223C21.9874 15.0556 21.9999 14.7156 21.9999 11.9996C21.9999 9.28359 21.9874 8.94273 21.9395 7.876C21.8895 6.81135 21.7208 6.08463 21.4749 5.44876C21.2186 4.79101 20.877 4.23306 20.3207 3.67719C19.7644 3.12091 19.2081 2.77922 18.5497 2.524C17.9122 2.27669 17.1851 2.10814 16.1204 2.05938C15.0537 2.01084 14.7141 1.99896 11.9972 1.99896H12.0004ZM11.1032 3.80116C11.2774 3.80089 11.4647 3.80097 11.6669 3.80106H11.667L12.0004 3.80116C14.6705 3.80116 14.987 3.81074 16.0414 3.85866C17.0165 3.90325 17.5457 4.06618 17.8982 4.20306C18.3649 4.38432 18.6977 4.601 19.0475 4.95102C19.3975 5.30104 19.6142 5.6344 19.7958 6.10109C19.9327 6.4532 20.0959 6.9824 20.1402 7.95746C20.1882 9.01169 20.1986 9.32838 20.1986 11.9973C20.1986 14.6662 20.1882 14.9829 20.1402 16.0371C20.0957 17.0122 19.9327 17.5414 19.7958 17.8935C19.6146 18.3602 19.3975 18.6925 19.0475 19.0423C18.6974 19.3923 18.3651 19.609 17.8982 19.7903C17.5461 19.9278 17.0165 20.0903 16.0414 20.1349C14.9872 20.1828 14.6705 20.1932 12.0004 20.1932C9.32999 20.1932 9.01351 20.1828 7.95927 20.1349C6.98421 20.0899 6.45501 19.927 6.10228 19.7901C5.63559 19.6088 5.30223 19.3921 4.95221 19.0421C4.60219 18.6921 4.38551 18.3596 4.20383 17.8927C4.06695 17.5406 3.90381 17.0114 3.85943 16.0363C3.81151 14.9821 3.80193 14.6654 3.80193 11.9948C3.80193 9.32421 3.81151 9.00919 3.85943 7.95496C3.90402 6.9799 4.06695 6.4507 4.20383 6.09818C4.38509 5.63148 4.60219 5.29813 4.95221 4.94811C5.30223 4.59808 5.63559 4.3814 6.10228 4.19973C6.45481 4.06222 6.98421 3.89971 7.95927 3.85491C8.88183 3.81324 9.23935 3.80074 11.1032 3.79866V3.80116ZM17.3386 5.46168C16.6761 5.46168 16.1385 5.99859 16.1385 6.66134C16.1385 7.32388 16.6761 7.86141 17.3386 7.86141C18.0012 7.86141 18.5387 7.32388 18.5387 6.66134C18.5387 5.9988 18.0012 5.46126 17.3386 5.46126V5.46168ZM6.86462 11.9996C6.86462 9.16344 9.16403 6.86396 12.0002 6.86385C14.8364 6.86385 17.1353 9.16337 17.1353 11.9996C17.1353 14.8358 14.8366 17.1343 12.0004 17.1343C9.16414 17.1343 6.86462 14.8358 6.86462 11.9996ZM15.3339 11.9996C15.3339 10.1584 13.8413 8.66605 12.0004 8.66605C10.1592 8.66605 8.66682 10.1584 8.66682 11.9996C8.66682 13.8405 10.1592 15.3331 12.0004 15.3331C13.8413 15.3331 15.3339 13.8405 15.3339 11.9996Z" fill="#808080"/>
</svg>
