<svg width="131" height="19" viewBox="0 0 131 19" fill="none" xmlns="http://www.w3.org/2000/svg">
<path d="M12.3531 11.6846H5.93484L4.63884 14.688H0.83313L7.60113 0.185143H10.6046L17.3931 14.688H13.6491L12.3531 11.6846ZM11.1394 8.84572L9.14399 4.19657L7.14856 8.84572H11.1394Z" fill="#2A2A2A"/>
<path d="M18.2518 0.185143H22.037V11.6229H28.2084V14.688H18.2518V0.185143Z" fill="#2A2A2A"/>
<path d="M30.0241 0.185143H37.039C38.6436 0.185143 39.8916 0.596571 40.783 1.41943C41.6744 2.22857 42.1201 3.36 42.1201 4.81371C42.1201 6.25371 41.6676 7.38514 40.7624 8.208C39.871 9.03086 38.6299 9.44229 37.039 9.44229H33.8093V14.688H30.0241V0.185143ZM36.5247 6.60343C37.2241 6.60343 37.7384 6.45943 38.0676 6.17143C38.4104 5.88343 38.5819 5.43771 38.5819 4.83429C38.5819 4.23086 38.4104 3.78514 38.0676 3.49714C37.7384 3.19543 37.2241 3.04457 36.5247 3.04457H33.8093V6.60343H36.5247Z" fill="#2A2A2A"/>
<path d="M57.2763 0.185143V14.688H53.5735V8.82514H47.6489V14.688H43.946V0.185143H47.6489V5.82171H53.5735V0.185143H57.2763Z" fill="#2A2A2A"/>
<path d="M69.6679 11.6846H63.2496L61.9536 14.688H58.1479L64.9159 0.185143H67.9193L74.7079 14.688H70.9639L69.6679 11.6846ZM68.4541 8.84572L66.4587 4.19657L64.4633 8.84572H68.4541Z" fill="#2A2A2A"/>
<path d="M86.6984 14.8731C85.615 14.8731 84.5453 14.7291 83.4893 14.4411C82.4333 14.1531 81.5761 13.7691 80.9179 13.2891L82.0904 10.6149C82.7899 11.0537 83.5373 11.3897 84.3327 11.6229C85.1282 11.856 85.9304 11.9726 86.7396 11.9726C87.5624 11.9726 88.1864 11.8629 88.6116 11.6434C89.0504 11.4103 89.2699 11.088 89.2699 10.6766C89.2699 10.3063 89.071 10.0046 88.6733 9.77143C88.2893 9.53829 87.5487 9.30514 86.4516 9.072C85.0939 8.784 84.031 8.44114 83.263 8.04343C82.495 7.64571 81.9533 7.17943 81.6379 6.64457C81.3362 6.10971 81.1853 5.45143 81.1853 4.66971C81.1853 3.77829 81.4321 2.98286 81.9259 2.28343C82.4333 1.57029 83.1396 1.01486 84.0447 0.617143C84.9636 0.205714 86.0127 0 87.1922 0C88.2344 0 89.2424 0.150857 90.2161 0.452572C91.2036 0.740572 91.9716 1.11772 92.5201 1.584L91.3681 4.25829C90.0516 3.35314 88.6664 2.90057 87.2127 2.90057C86.5133 2.90057 85.951 3.03771 85.5259 3.312C85.1007 3.57257 84.8881 3.92229 84.8881 4.36114C84.8881 4.62172 84.9636 4.83429 85.1144 4.99886C85.2653 5.16343 85.5464 5.328 85.9579 5.49257C86.3693 5.64343 86.9796 5.80114 87.7887 5.96571C89.1053 6.25371 90.1407 6.60343 90.895 7.01486C91.6493 7.41257 92.1842 7.87886 92.4996 8.41372C92.815 8.94857 92.9727 9.58629 92.9727 10.3269C92.9727 11.7531 92.4241 12.8709 91.327 13.68C90.2299 14.4754 88.687 14.8731 86.6984 14.8731Z" fill="#2A2A2A"/>
<path d="M101.676 4.32C102.883 4.32 103.781 4.68343 104.371 5.41028C104.96 6.12343 105.255 7.21371 105.255 8.68114V14.688H101.593V8.84572C101.593 8.24229 101.484 7.80343 101.264 7.52914C101.059 7.25486 100.743 7.11771 100.318 7.11771C99.7694 7.11771 99.3306 7.296 99.0014 7.65257C98.686 7.99543 98.5283 8.46171 98.5283 9.05143V14.688H94.8666V0.185143H98.5283V5.78057C98.8986 5.30057 99.3512 4.93714 99.886 4.69029C100.421 4.44343 101.017 4.32 101.676 4.32Z" fill="#2A2A2A"/>
<path d="M112.424 14.8526C111.313 14.8526 110.332 14.64 109.482 14.2149C108.645 13.776 107.994 13.1589 107.528 12.3634C107.075 11.568 106.849 10.6354 106.849 9.56571C106.849 8.496 107.075 7.57029 107.528 6.78857C107.994 5.99314 108.645 5.38286 109.482 4.95771C110.319 4.53257 111.299 4.32 112.424 4.32C113.548 4.32 114.529 4.53257 115.365 4.95771C116.202 5.38286 116.847 5.99314 117.299 6.78857C117.765 7.57029 117.999 8.496 117.999 9.56571C117.999 10.6354 117.765 11.568 117.299 12.3634C116.847 13.1589 116.202 13.776 115.365 14.2149C114.529 14.64 113.548 14.8526 112.424 14.8526ZM112.424 12.1166C113.727 12.1166 114.378 11.2663 114.378 9.56571C114.378 7.86514 113.727 7.01486 112.424 7.01486C111.121 7.01486 110.469 7.86514 110.469 9.56571C110.469 11.2663 111.121 12.1166 112.424 12.1166Z" fill="#2A2A2A"/>
<path d="M126.363 4.32C127.227 4.32 127.995 4.54629 128.667 4.99886C129.353 5.43771 129.881 6.06171 130.251 6.87086C130.635 7.68 130.827 8.60571 130.827 9.648C130.827 10.6903 130.635 11.6091 130.251 12.4046C129.881 13.1863 129.36 13.7897 128.688 14.2149C128.016 14.64 127.241 14.8526 126.363 14.8526C125.718 14.8526 125.122 14.7223 124.573 14.4617C124.038 14.2011 123.62 13.8514 123.318 13.4126V18.3909H119.657V4.56686H123.257V5.86286C123.545 5.38286 123.963 5.00571 124.512 4.73143C125.074 4.45714 125.691 4.32 126.363 4.32ZM125.252 12.1166C125.883 12.1166 126.363 11.904 126.692 11.4789C127.035 11.0537 127.206 10.4434 127.206 9.648C127.206 8.81143 127.035 8.17371 126.692 7.73486C126.349 7.28229 125.862 7.056 125.232 7.056C124.601 7.056 124.114 7.27543 123.771 7.71429C123.428 8.15314 123.257 8.784 123.257 9.60686C123.257 10.416 123.428 11.04 123.771 11.4789C124.114 11.904 124.608 12.1166 125.252 12.1166Z" fill="#2A2A2A"/>
</svg>
