<svg width="30" height="30" viewBox="0 0 30 30" fill="none" xmlns="http://www.w3.org/2000/svg">
<path fill-rule="evenodd" clip-rule="evenodd" d="M19.2748 13.8533C19.2748 13.8533 13.6747 22.9337 9.0833 22.9337C1.05245 22.9337 8.53664 5.63501 14.3938 5.63501C18.4808 5.63501 19.2748 13.8533 19.2748 13.8533Z" fill="#F67599"/>
<path fill-rule="evenodd" clip-rule="evenodd" d="M25.9293 25.2729C24.334 26.9706 22.3649 28.2732 20.1784 29.0776C17.9919 29.882 15.648 30.166 13.3326 29.9071C11.0172 29.6482 8.79399 28.8535 6.83923 27.586C4.88446 26.3185 3.25192 24.6132 2.07104 22.6051C3.39867 24.4108 5.65044 25.6146 8.85237 25.6146C16.7401 25.6146 21.2175 19.485 21.2175 19.485C21.2175 19.485 21.6048 24.3294 25.9196 25.2729H25.9293Z" fill="#F67599"/>
<path fill-rule="evenodd" clip-rule="evenodd" d="M28.2917 8.05884C29.4723 10.3145 30.0586 12.8337 29.9954 15.3787C29.9322 17.9238 29.2215 20.4108 27.9305 22.6051C26.9094 22.0323 26.1544 21.0811 25.8284 19.9568L24.1168 14.8293L28.2917 8.05884Z" fill="#808080"/>
<path fill-rule="evenodd" clip-rule="evenodd" d="M15.0024 0.0130266C18.7639 0.0105251 22.3885 1.42411 25.1548 3.97249L22.3141 8.55661C21.2858 5.88226 19.1968 3.20468 15.1325 3.20468C6.8088 3.20468 0.63923 12.2916 0.63923 17.9884C0.637396 18.7252 0.731462 19.459 0.919069 20.1715C0.0866864 17.9044 -0.185961 15.4699 0.124289 13.0748C0.434539 10.6798 1.31852 8.39507 2.7011 6.41479C4.08368 4.43452 5.92399 2.81725 8.06563 1.70044C10.2073 0.583634 12.5869 0.00029138 15.0024 0V0.0130266Z" fill="#808080"/>
</svg>

